<?xml version="1.0" encoding="UTF-8" standalone="no"?>
<!-- Created with Inkscape (http://www.inkscape.org/) -->

<svg
   xmlns:dc="http://purl.org/dc/elements/1.1/"
   xmlns:cc="http://creativecommons.org/ns#"
   xmlns:rdf="http://www.w3.org/1999/02/22-rdf-syntax-ns#"
   xmlns:svg="http://www.w3.org/2000/svg"
   xmlns="http://www.w3.org/2000/svg"
   version="1.1"
   width="703.75"
   height="101.25"
   id="svg2"
   xml:space="preserve"><metadata
     id="metadata8"><rdf:RDF><cc:Work
         rdf:about=""><dc:format>image/svg+xml</dc:format><dc:type
           rdf:resource="http://purl.org/dc/dcmitype/StillImage" /><dc:title></dc:title></cc:Work></rdf:RDF></metadata><defs
     id="defs6"><clipPath
       id="clipPath18"><path
         d="M 0,337.504 0,0 l 1341.63,0 0,337.504 -1341.63,0 z"
         id="path20" /></clipPath></defs><path
     d="M 351.875,2.0760073e-6 C 351.61588,-9.9792399e-4 351.3246,0.35925208 350.90625,1.1250021 c -0.5379,0.9846 -4.4843,9.5910999 -6.6875,13.3749999 -1.8633,3.21 -6.1153,1.048 -7.75,0.0625 -0.894,-0.5379 -1.4822,-1.17275 -2.375,-1.71875 -0.3342,-0.2016 -0.7774,-0.45835 -1.1875,-0.34375 -0.6363,0.1842 -0.37035,1.4649 -0.28125,1.875 1.4544,6.7161 4.5625,22.07275 4.5625,25.28125 0,3.1968 -2.0012,2.0706 -2.9375,1.3125 -0.7218,-0.5802 -7.94218,-6.44335 -15.90625,-9.90625 -0.85545,-0.3717 -1.29335,-0.094 -1.0625,0.875 0.21447,0.9342 0.4996,1.84495 0.71875,2.78125 0.29649,1.2645 0.47226,5.1028 -1.78125,4.9375 -5.20548,-0.3774 -11.47344,-1.08085 -14.1875,-0.71875 -0.94687,0.1266 -1.08203,0.50955 -0.15625,2.15625 0.7957,1.419 2.6738,3.9992 6.125,11.1875 1.1742,2.4435 1.14843,5.2395 -1.6875,6.375 -0.66093,0.2685 -2.55117,1.0012 -3,1.5625 -0.71719,0.8964 3.34415,2.208 3.96875,2.4375 4.9746,1.8504 15.79141,5.6569 18.90625,10.5625 0.98907,1.56444 -0.34726,3.30234 -1.375,4.59375 -0.47226,0.59883 -2.6871,3.71758 -0.46875,3.34375 8.28396,-1.3875 16.6149,-1.68827 25.125,1 l -0.8125,19.093748 6.4375,0 L 354.25,83.687502 c 6.1218,2.0238 12.5319,2.69415 18.9375,1.59375 1.317,-0.225 3.60665,-0.6629 5.28125,-1.15625 3.5814,-1.125 1.27875,-1.92928 0.65625,-2.125 -2.1081,-0.65391 -3.62525,-3.65862 -0.0312,-5.53125 8.7282,-4.54104 12.5158,-6.39175 22.9375,-17.78125 0.7545,-0.9153 0.50795,-1.57645 -0.15625,-1.46875 -1.3596,0.1959 -3.39335,0.5044 -4.53125,-0.5 -1.0887,-0.9621 -0.73045,-2.79005 -0.34375,-3.96875 0.8439,-2.5875 2.66065,-6.8987 4.65625,-14 0.1971,-0.7044 -0.32155,-1.08365 -1.28125,-0.78125 -0.9492,0.3036 -5.09695,2.0718 -8.78125,3 -2.2476,0.5682 -6.23005,1.9682 -8.03125,-0.25 -0.5871,-0.7254 -0.7117,-1.70995 -0.8125,-2.59375 -0.0714,-0.5988 -0.2448,-5.47115 -1.6875,-3.59375 -7.4682,9.7092 -14.82275,17.9057 -13.71875,9.125 1.0896,-8.6274 2.43935,-18.36555 3.78125,-27.09375 0.2004,-1.3149 -0.048,-1.91065 -1.3125,-1.09375 -1.2246,0.7911 -2.45425,1.5787 -3.71875,2.3125 -1.5009,1.0053 -3.81155,1.3346 -5.28125,0.125 C 359.32185,16.680752 353.5708,2.9496021 352.7188,1.1250021 352.3643,0.36390208 352.13412,0.00116208 351.875,2.0760073e-6 z"
     id="path3087"
     style="fill:#f47216;fill-opacity:1;fill-rule:nonzero;stroke:none" /><path
     d="m 413.75,5.6250021 0,89.9999999 33.75,0 0,-30 22.5,30 33.75,0 0,-89.9999999 -33.75,0 0,29.9999999 -22.5,-29.9999999 -33.75,0 z"
     id="path3085"
     style="fill:#f47216;fill-opacity:1;fill-rule:nonzero;stroke:none" /><path
     d="m 249.4375,5.6250021 c 18.75,0 40.5625,9.1418999 40.5625,36.5624999 0,27.4242 -21.8125,36.5625 -40.5625,36.5625 l -13.8125,0 0,16.875 -35.625,0 0,-89.9999999 49.4375,0 z m -1.3125,26.2499999 -12.53125,0 0,20.625 12.53125,0 c 3.678,0 10,-2.7234 10,-10.3125 0,-7.5855 -6.322,-10.3125 -10,-10.3125 z"
     id="path3097"
     style="fill:#f47216;fill-opacity:1;fill-rule:nonzero;stroke:none" /><path
     d="m 146.25,5.6250021 c 22.5,0 45,11.2523999 45,44.9999999 0,33.74997 -22.5,45 -45,45 l -45,0 0,-89.9999999 45,0 z m -1.40625,31.2499999 -9.84375,0 0,27.5 9.84375,0 c 6.5649,0 13.125,-3.4351 13.125,-13.75 0,-10.3113 -6.5601,-13.75 -13.125,-13.75 z"
     id="path3095"
     style="fill:#f47216;fill-opacity:1;fill-rule:nonzero;stroke:none" /><path
     d="m 90,5.6250021 0,89.9999999 -33.75,0 -22.5,-30 0,30 -33.75,0 0,-89.9999999 33.75,0 22.5,29.9999999 0,-29.9999999 33.75,0 z"
     id="path3093"
     style="fill:#f47216;fill-opacity:1;fill-rule:nonzero;stroke:none" /><path
     d="m 613.75,5.6250021 0,89.9999999 45,0 c 22.5,0 45,-11.25003 45,-45 0,-33.7476 -22.5,-44.9999999 -45,-44.9999999 l -45,0 z m 33.75,31.2499999 9.84375,0 c 6.5649,0 13.125,3.4387 13.125,13.75 0,10.3149 -6.5601,13.75 -13.125,13.75 l -9.84375,0 0,-27.5 z"
     id="path3083-7"
     style="fill:#f47216;fill-opacity:1;fill-rule:nonzero;stroke:none" /><path
     d="m 515,5.6250021 0,89.9999999 35.625,0 0,-16.875 13.8125,0 c 18.75,0 40.5625,-9.1383 40.5625,-36.5625 0,-27.4206 -21.8125,-36.5624999 -40.5625,-36.5624999 l -49.4375,0 z m 35.59375,26.2499999 12.53125,0 c 3.678,0 10,2.727 10,10.3125 0,7.5891 -6.322,10.3125 -10,10.3125 l -12.53125,0 0,-20.625 z"
     id="path3081-9"
     style="fill:#f47216;fill-opacity:1;fill-rule:nonzero;stroke:none" /></svg>